# xmcd CD database file
#
# Track frame offsets:
#	150
#	26445
#	48695
#	70810
#	99840
#	127192
#	150845
#	173882
#	194667
#	204595
#	233307
#	261075
#
# Disc length: 3774 seconds
#
# Revision: 0
# Processed by: cddbd v1.5PL3 Copyright (c) Steve Scherf et al.
# Submitted via: CDex 1.51
#
DISCID=9b0ebc0c
DTITLE=aqua the sound of the nature Espande 3 - Mare~moti
DYEAR=1996
DGENRE=New Age
TTITLE0=Gregor Theelen - Tokama
TTITLE1=Haman - The silent mermaid
TTITLE2=Ray Marsigli - Agua amarga
TTITLE3=Med Goodall - Stirring the waters
TTITLE4=Alessandro Altarocca - Just memories
TTITLE5=Simon Cooper - Lyonesse
TTITLE6=Marco Bini - Genesi dei coralli
TTITLE7=Bertoni/Serotti - Farfalle
TTITLE8=Lucio Morelli and David Morley - Lo specchio e il mare
TTITLE9=Soffusion - Cerchi sull'acqua
TTITLE10=Med Goodall - Islands
TTITLE11=Haman - Planet haman
EXTD=YEAR: 1996
EXTT0=
EXTT1=
EXTT2=
EXTT3=
EXTT4=
EXTT5=
EXTT6=
EXTT7=
EXTT8=
EXTT9=
EXTT10=
EXTT11=
PLAYORDER=
